# xmcd
#
# Track frame offsets:
#	150
#	17831
#	38759
#	54389
#	77819
#
# Disc length: 1551 seconds
#
# Revision: 1
# Processed by: cddbd v1.5.1PL0 Copyright (c) Steve Scherf et al.
# Submitted via: CDex 1.50Beta5
#
DISCID=33060d05
DTITLE=ロッカフラグース - ワンカット
DYEAR=1900
DGENRE=Rock
TTITLE0=クリア
TTITLE1=ハッピーランナー
TTITLE2=君のウソ
TTITLE3=声
TTITLE4=3 minutes POP
EXTD=
EXTT0=
EXTT1=
EXTT2=
EXTT3=
EXTT4=
PLAYORDER=
